# xmcd
#
# Track frame offsets: 
#        150
#        18072
#        31714
#        44447
#        59436
#        74887
#        94021
#        109344
#        120864
#        131286
#        146600
#        157993
#        171660
#        185960
#        201283
#        218870
#        240156
#        264400
#        277926
#        288551
#
# Disc length: 4088 seconds
#
# Revision: 0
# Processed by: cddbd v1.5.2PL0 Copyright (c) Steve Scherf et al.
# Submitted via: ExactAudioCopy v0.95b4
#
DISCID=270ff614
DTITLE=Ringo Starr - Photograph The Very Best of Ringo
DYEAR=2007
DGENRE=BritPop
TTITLE0=Photograph
TTITLE1=It Don't Come Easy
TTITLE2=You're Sixteen
TTITLE3=Back Off Boogaloo
TTITLE4=I'm The Greatest
TTITLE5=Oh, My My
TTITLE6=Only You (And You Alone)
TTITLE7=Beaucoups of Blues
TTITLE8=Early 1970
TTITLE9=Sookeroo
TTITLE10=No-No Song
TTITLE11=(It's All Down to) Good Night Vienna
TTITLE12=Hey Baby
TTITLE13=A Dose Of Rock 'N' Roll
TTITLE14=Weigh Of The World
TTITLE15=King Of Broken Hearts
TTITLE16=Never Without You
TTITLE17=Act Naturally -duet with Buck Owens
TTITLE18=Wrack My Brain
TTITLE19=FAding In And Fading Out
EXTD=
EXTT0=
EXTT1=
EXTT2=
EXTT3=
EXTT4=
EXTT5=
EXTT6=
EXTT7=
EXTT8=
EXTT9=
EXTT10=
EXTT11=
EXTT12=
EXTT13=
EXTT14=
EXTT15=
EXTT16=
EXTT17=
EXTT18=
EXTT19=
PLAYORDER=
